<?xml version="1.0" encoding="UTF-8"?>
<svg id="Layer_1" xmlns="http://www.w3.org/2000/svg" version="1.1" viewBox="0 0 234 278">
  <!-- Generator: Adobe Illustrator 29.8.1, SVG Export Plug-In . SVG Version: 2.1.1 Build 2)  -->
  <defs>
    <style>
      .st0, .st1 {
        fill: #6b21a8;
      }

      .st1 {
        isolation: isolate;
        opacity: .2;
      }
    </style>
  </defs>
  <path class="st1" d="M216.17,136.77l-53.4,83.91h-91.54l-53.4-83.91,53.4-83.91h91.54l53.4,83.91Z"/>
  <path class="st0" d="M77.67,56.96l-50.8,79.81,50.8,79.81c.54.85.9,1.79,1.08,2.78.17.99.15,2-.07,2.98-.22.98-.63,1.91-1.2,2.73-.58.82-1.31,1.52-2.15,2.06-1.22.78-2.64,1.2-4.09,1.19-1.29,0-2.55-.32-3.68-.94-1.13-.62-2.08-1.51-2.77-2.6L11.39,140.86c-.78-1.22-1.19-2.65-1.19-4.1s.41-2.87,1.19-4.1l53.4-83.91c1.09-1.71,2.81-2.91,4.78-3.35,1.97-.44,4.04-.08,5.75,1.01,1.71,1.09,2.91,2.81,3.35,4.78.44,1.98.08,4.04-1.01,5.75h0ZM222.61,132.68l-53.4-83.91c-.54-.84-1.24-1.57-2.06-2.15-.82-.58-1.75-.98-2.72-1.2-1.98-.44-4.04-.08-5.75,1.01-1.71,1.09-2.91,2.81-3.35,4.78-.44,1.98-.08,4.04,1.01,5.75l50.8,79.81-50.8,79.81c-.54.85-.9,1.79-1.08,2.78-.17.99-.15,2,.07,2.98.22.98.63,1.91,1.2,2.73.58.82,1.31,1.52,2.15,2.06,1.22.78,2.64,1.2,4.09,1.19,1.29,0,2.55-.32,3.68-.94,1.13-.62,2.08-1.51,2.77-2.6l53.4-83.91c.77-1.22,1.19-2.64,1.18-4.09,0-1.45-.42-2.87-1.19-4.09Z"/>
</svg>
